HIERARCHY
ROOT SimulationBone
{
	OFFSET 0.000000 0.000000 0.000000
	CHANNELS 6 Xposition Yposition Zposition Zrotation Yrotation Xrotation 
	JOINT Hips
	{
		OFFSET 0.000000 0.000000 0.000000
		CHANNELS 6 Xposition Yposition Zposition Zrotation Yrotation Xrotation 
		JOINT LeftUpLeg
		{
			OFFSET 0.103454 1.857841 10.548504
			CHANNELS 3 Zrotation Yrotation Xrotation
			JOINT LeftLeg
			{
				OFFSET 43.499992 -0.000061 0.000000
				CHANNELS 3 Zrotation Yrotation Xrotation
				JOINT LeftFoot
				{
					OFFSET 42.372196 0.000008 -0.000002
					CHANNELS 3 Zrotation Yrotation Xrotation
					JOINT LeftToe
					{
						OFFSET 17.300022 0.000011 0.000012
						CHANNELS 3 Zrotation Yrotation Xrotation
						End Site
						{
							OFFSET 0.000000 0.000000 0.000000
						}
					}
				}
			}
		}
		JOINT RightUpLeg
		{
			OFFSET 0.103458 1.857820 -10.548491
			CHANNELS 3 Zrotation Yrotation Xrotation
			JOINT RightLeg
			{
				OFFSET 43.500046 0.000015 0.000006
				CHANNELS 3 Zrotation Yrotation Xrotation
				JOINT RightFoot
				{
					OFFSET 42.372269 -0.000046 0.000017
					CHANNELS 3 Zrotation Yrotation Xrotation
					JOINT RightToe
					{
						OFFSET 17.300032 0.000011 0.000015
						CHANNELS 3 Zrotation Yrotation Xrotation
						End Site
						{
							OFFSET 0.000000 0.000000 0.000000
						}
					}
				}
			}
		}
		JOINT Spine
		{
			OFFSET 6.901962 -2.603707 -0.000004
			CHANNELS 3 Zrotation Yrotation Xrotation
			JOINT Spine1
			{
				OFFSET 12.588104 -0.000004 -0.000001
				CHANNELS 3 Zrotation Yrotation Xrotation
				JOINT Spine2
				{
					OFFSET 12.343199 -0.000026 0.000003
					CHANNELS 3 Zrotation Yrotation Xrotation
					JOINT Neck
					{
						OFFSET 25.832890 0.000004 -0.000006
						CHANNELS 3 Zrotation Yrotation Xrotation
						JOINT Head
						{
							OFFSET 11.766623 0.000031 0.000004
							CHANNELS 3 Zrotation Yrotation Xrotation
							End Site
							{
								OFFSET 0.000000 0.000000 0.000000
							}
						}
					}
					JOINT LeftShoulder
					{
						OFFSET 19.745897 -1.480345 6.000100
						CHANNELS 3 Zrotation Yrotation Xrotation
						JOINT LeftArm
						{
							OFFSET 11.284126 0.000003 -0.000015
							CHANNELS 3 Zrotation Yrotation Xrotation
							JOINT LeftForeArm
							{
								OFFSET 33.000057 -0.000023 0.000027
								CHANNELS 3 Zrotation Yrotation Xrotation
								JOINT LeftHand
								{
									OFFSET 25.199987 0.000051 0.000021
									CHANNELS 3 Zrotation Yrotation Xrotation
									End Site
									{
										OFFSET 0.000000 0.000000 0.000000
									}
								}
							}
						}
					}
					JOINT RightShoulder
					{
						OFFSET 19.746086 -1.480362 -6.000076
						CHANNELS 3 Zrotation Yrotation Xrotation
						JOINT RightArm
						{
							OFFSET 11.284140 0.000004 -0.000015
							CHANNELS 3 Zrotation Yrotation Xrotation
							JOINT RightForeArm
							{
								OFFSET 33.000084 -0.000023 0.000011
								CHANNELS 3 Zrotation Yrotation Xrotation
								JOINT RightHand
								{
									OFFSET 25.199789 0.000148 0.000422
									CHANNELS 3 Zrotation Yrotation Xrotation
									End Site
									{
										OFFSET 0.000000 0.000000 0.000000
									}
								}
							}
						}
					}
				}
			}
		}
	}
}
MOTION
Frames: 5
Frame Time: 0.033333
-243.960546 0.000000 540.300307 0.000000 80.605416 0.000000 0.820041 91.554611 -0.294974 95.778129 0.984477 -179.391392 -175.381335 -6.124002 171.486543 -14.460515 -2.468151 -8.163191 78.666847 4.543478 -5.325329 21.454558 0.003114 0.000019 -176.511144 -0.160602 -176.455041 -11.746580 1.187945 9.044536 74.360351 -5.657964 2.810910 21.454555 -0.003094 0.000001 8.083497 1.169793 -0.478717 6.145645 2.363299 -0.895096 5.827282 2.357698 -0.909348 2.895881 9.530462 6.317267 -14.602857 -15.966742 13.405792 -160.193303 -71.638111 -21.755966 0.542067 60.831434 33.855052 -32.434581 -16.587755 1.407469 7.430251 1.284418 14.809281 -162.597981 73.797701 19.300188 -16.410341 -55.163333 -23.243335 -32.528267 15.112422 -1.288075 9.029047 4.338206 -42.691377 
-243.589796 0.000000 540.499469 0.000000 81.359974 0.000000 0.932860 91.531013 -0.446817 95.824981 1.027748 -179.945842 -175.564385 -6.260606 171.513905 -14.813669 -2.369826 -8.048285 78.698273 4.424096 -5.477781 21.454555 0.003110 0.000020 -176.523480 -0.306710 -176.440780 -11.894868 1.187522 9.168597 74.479730 -5.768043 2.730252 21.454551 -0.003098 0.000001 8.086222 1.220432 -0.467728 6.151649 2.463932 -0.870387 5.833268 2.458496 -0.885267 2.966905 9.483451 6.258431 -14.569830 -16.017000 13.344973 -160.277806 -71.555241 -21.670216 -1.509858 60.356005 32.417830 -32.813793 -16.634641 1.418649 7.284878 0.629610 14.189753 -163.206947 74.031403 18.673408 -18.400147 -54.473784 -22.573514 -33.131878 15.341110 -1.315702 8.829694 3.868994 -42.406804 
-243.216487 0.000000 540.689165 0.000000 82.052752 0.000000 1.031435 91.496521 -0.556465 95.896285 1.073562 179.700668 -175.825366 -6.423000 171.529150 -15.291984 -2.178485 -7.844788 78.767886 4.234085 -5.662099 21.454558 0.003117 0.000020 -176.512688 -0.512096 -176.376234 -12.059905 1.168228 9.347578 74.621743 -5.913926 2.656759 21.454551 -0.003091 0.000002 8.090786 1.257533 -0.433692 6.161381 2.536341 -0.800285 5.842965 2.531310 -0.815588 3.031194 9.610723 6.069777 -14.506379 -15.936629 13.127782 -161.001301 -71.664722 -20.924488 -3.829993 60.175981 30.013589 -32.990739 -16.657382 1.423951 7.135910 0.157274 13.571331 -163.698966 74.031881 18.169014 -20.299293 -54.108762 -20.633879 -33.272382 15.404414 -1.322821 9.298316 3.704586 -40.051037 
-242.842192 0.000000 540.869063 0.000000 82.685404 0.000000 1.116334 91.453796 -0.623000 95.987903 1.108226 179.585952 -176.182885 -6.623003 171.618584 -15.904365 -1.951353 -7.570978 78.837896 3.992672 -5.847769 21.454557 0.003107 0.000016 -176.468483 -0.758000 -176.240573 -12.220049 1.149581 9.592282 74.781105 -6.106814 2.579076 21.454553 -0.003108 -0.000002 8.102305 1.291010 -0.434932 6.184235 2.603347 -0.800728 5.865824 2.598325 -0.816455 2.993603 9.586910 5.889419 -14.349322 -15.556007 12.785683 -161.710398 -71.792856 -20.193458 -6.271160 60.190762 27.267153 -33.117224 -16.835602 1.438171 7.167275 -0.017123 13.445019 -164.580389 74.017715 17.265586 -22.157347 -54.055739 -17.870840 -33.199763 15.335238 -1.316790 9.911134 3.782564 -37.227403 
-242.468486 0.000000 541.038829 0.000000 83.259695 0.000000 1.195044 91.406273 -0.665065 96.082421 1.116672 179.636734 -176.633582 -6.821106 171.759354 -16.640072 -1.686771 -7.251897 78.875591 3.714971 -6.039493 21.454560 0.003108 0.000016 -176.418418 -0.983311 -176.064409 -12.392475 1.183824 9.873293 74.970540 -6.331797 2.479343 21.454553 -0.003095 -0.000001 8.108241 1.321098 -0.457171 6.195480 2.664698 -0.843465 5.877045 2.659419 -0.859545 2.972317 9.467772 5.642721 -14.217763 -15.186053 12.369105 -162.613622 -71.994538 -19.262192 -8.314826 60.497793 24.512980 -33.451818 -17.294099 1.475005 7.121747 -0.402649 13.500893 -165.416868 74.027120 16.408047 -24.038269 -54.434805 -14.666581 -32.934008 15.389931 -1.314587 9.971617 3.908562 -35.897552 
